<svg xmlns="http://www.w3.org/2000/svg" width="13" height="12" viewBox="0 0 13 12" fill="none">
  <path d="M7.18573 5.3143V1.88573C7.18573 1.70386 7.11348 1.52945 6.98489 1.40085C6.85629 1.27226 6.68188 1.20001 6.50001 1.20001C6.31815 1.20001 6.14374 1.27226 6.01514 1.40085C5.88654 1.52945 5.8143 1.70386 5.8143 1.88573V5.3143H2.38573C2.20386 5.3143 2.02945 5.38654 1.90085 5.51514C1.77226 5.64374 1.70001 5.81815 1.70001 6.00001C1.70001 6.18188 1.77226 6.35629 1.90085 6.48489C2.02945 6.61348 2.20386 6.68573 2.38573 6.68573H5.8143V10.1143C5.8143 10.2962 5.88654 10.4706 6.01514 10.5992C6.14374 10.7278 6.31815 10.8 6.50001 10.8C6.68188 10.8 6.85629 10.7278 6.98489 10.5992C7.11348 10.4706 7.18573 10.2962 7.18573 10.1143V6.68573H10.6143C10.7962 6.68573 10.9706 6.61348 11.0992 6.48489C11.2278 6.35629 11.3 6.18188 11.3 6.00001C11.3 5.81815 11.2278 5.64374 11.0992 5.51514C10.9706 5.38654 10.7962 5.3143 10.6143 5.3143H7.18573Z" fill="#12BB23"/>
</svg>