<svg width="12" height="12" viewBox="0 0 12 12" fill="none" xmlns="http://www.w3.org/2000/svg">
<g id="plus">
<path id="Vector" d="M6.18573 5.3143V5.8143H6.68573H10.1143C10.1636 5.8143 10.2108 5.83386 10.2456 5.86869C10.2804 5.90352 10.3 5.95076 10.3 6.00001C10.3 6.04927 10.2804 6.0965 10.2456 6.13133C10.2108 6.16616 10.1636 6.18573 10.1143 6.18573H6.68573H6.18573V6.68573V10.1143C6.18573 10.1636 6.16616 10.2108 6.13133 10.2456C6.0965 10.2804 6.04927 10.3 6.00001 10.3C5.95076 10.3 5.90352 10.2804 5.86869 10.2456C5.83386 10.2108 5.8143 10.1636 5.8143 10.1143V6.68573V6.18573H5.3143H1.88573C1.83647 6.18573 1.78923 6.16616 1.75441 6.13133C1.71958 6.0965 1.70001 6.04927 1.70001 6.00001C1.70001 5.95076 1.71958 5.90352 1.75441 5.86869C1.78923 5.83386 1.83647 5.8143 1.88573 5.8143H5.3143H5.8143V5.3143V1.88573C5.8143 1.83647 5.83386 1.78923 5.86869 1.75441C5.90352 1.71958 5.95076 1.70001 6.00001 1.70001C6.04927 1.70001 6.0965 1.71958 6.13133 1.75441C6.16616 1.78923 6.18573 1.83647 6.18573 1.88573V5.3143Z" fill="#97A1B2" stroke="#1B72C2"/>
</g>
</svg>
