<svg xmlns="http://www.w3.org/2000/svg" width="13" height="12" viewBox="0 0 13 12" fill="none">
  <path d="M7.18571 5.3143V1.88573C7.18571 1.70386 7.11347 1.52945 6.98487 1.40085C6.85627 1.27226 6.68186 1.20001 6.5 1.20001C6.31813 1.20001 6.14372 1.27226 6.01512 1.40085C5.88653 1.52945 5.81428 1.70386 5.81428 1.88573V5.3143H2.38571C2.20385 5.3143 2.02943 5.38654 1.90084 5.51514C1.77224 5.64374 1.7 5.81815 1.7 6.00001C1.7 6.18188 1.77224 6.35629 1.90084 6.48489C2.02943 6.61348 2.20385 6.68573 2.38571 6.68573H5.81428V10.1143C5.81428 10.2962 5.88653 10.4706 6.01512 10.5992C6.14372 10.7278 6.31813 10.8 6.5 10.8C6.68186 10.8 6.85627 10.7278 6.98487 10.5992C7.11347 10.4706 7.18571 10.2962 7.18571 10.1143V6.68573H10.6143C10.7961 6.68573 10.9706 6.61348 11.0992 6.48489C11.2278 6.35629 11.3 6.18188 11.3 6.00001C11.3 5.81815 11.2278 5.64374 11.0992 5.51514C10.9706 5.38654 10.7961 5.3143 10.6143 5.3143H7.18571Z" fill="#3FA1E3"/>
</svg>